<svg xmlns="http://www.w3.org/2000/svg" viewBox="0 0 400 400" width="100%" height="100%" preserveAspectRatio="xMidYMid slice"><defs><linearGradient id="p5" x1="0" y1="0" x2="0" y2="1"><stop offset="0" stop-color="#14233d"/><stop offset="1" stop-color="#0c1a30"/></linearGradient></defs><rect width="400" height="400" fill="url(#p5)"/><path d="M40 400 Q40 300 200 295 Q360 300 360 400 Z" fill="#1d3a63"/><rect x="178" y="248" width="44" height="62" rx="14" fill="#7a4a28"/><ellipse cx="200" cy="178" rx="76" ry="88" fill="#7a4a28"/><circle cx="126" cy="182" r="15" fill="#7a4a28"/><circle cx="274" cy="182" r="15" fill="#7a4a28"/><path d="M124 175 C124 95 276 95 276 175 C276 150 230 138 200 138 C170 138 124 150 124 175 Z" fill="#1b1b1b"/><ellipse cx="172" cy="178" rx="13" ry="9" fill="#ffffff"/><circle cx="172" cy="179" r="5.5" fill="#2b2b2b"/><ellipse cx="228" cy="178" rx="13" ry="9" fill="#ffffff"/><circle cx="228" cy="179" r="5.5" fill="#2b2b2b"/><path d="M160 162 Q172 156 184 162" stroke="#1b1b1b" stroke-width="4" fill="none" stroke-linecap="round"/><path d="M216 162 Q228 156 240 162" stroke="#1b1b1b" stroke-width="4" fill="none" stroke-linecap="round"/><path d="M196 205 Q200 212 204 205" stroke="#00000022" stroke-width="3" fill="none" stroke-linecap="round"/><path d="M180 226 Q200 244 220 226" stroke="#7a3b2e" stroke-width="5" fill="none" stroke-linecap="round"/><ellipse cx="160" cy="210" rx="14" ry="9" fill="#ffffff" opacity="0.12"/><ellipse cx="240" cy="210" rx="14" ry="9" fill="#ffffff" opacity="0.12"/><path d="M200 295 L160 330 M200 295 L240 330" stroke="#ffffff" stroke-width="3" opacity="0.22" fill="none"/></svg>